<svg width="375" height="361" viewBox="0 0 375 361" fill="none" xmlns="http://www.w3.org/2000/svg">
<path d="M350 184.5L337.5 204.5H193L196.5 139L204 41.5H220.5H239.5L242.5 49.5H252L303.5 59L315 62H331.5L356 80L361.5 89L366 106.5L361.5 119L366 128L373.5 139L361.5 172L350 176.5V184.5Z" fill="url(#paint0_linear_252_70)" stroke="#CDCDCD"/>
<path d="M148.5 147.5L201.5 153L214.5 147.5L221 65.5L212 35L201.5 21L184.5 11L169.5 0L148.5 3H126L106 13.5L91 26.5L78.5 35L67 55.5L57.5 69V74.5L44 80.5V86V103V111.5L53.5 122.5L78.5 128L148.5 147.5Z" fill="url(#paint1_linear_252_70)"/>
<path d="M245 324.5L225.5 319.5L186.5 189.5L195 175L228.5 169L249.5 164L283 161L300 169L322.5 175L327.5 185L345.5 200.5L354 239.5L364.5 287L343 314.5H322.5L307.5 324.5L289 329.5H283L268 333L245 324.5Z" fill="url(#paint2_linear_252_70)"/>
<path d="M155.5 187L196.5 178L226.5 215L233.5 256.5L243.5 275.5V296L230 327L199 348.5H177.5L161 356.5L140.5 361H125L106 335L93 331V322.5L86 311L83.5 301V288.5L93 272.5L155.5 187Z" fill="url(#paint3_linear_252_70)"/>
<path d="M133 243L183 182L199.5 165L198 147L92.5 105L44 112.5L35.5 125L14 133L8 147.5L2.5 162.5L0 172L2.5 198.5L6 208L8 222L28.5 243L31 251.5L44 262L49.5 273L65 280.5H78.5L96 275.5L133 243Z" fill="#E5E5E5"/>
<path d="M125.5 255L168 200L178.5 180L197 169.5L230.5 168L235 169.5L250 172H260.5L266.5 181L259 189.5L275.5 193.5H253.5L296.5 209.5L253.5 198.5L298 230.5L250 204L269.5 227L278.5 235L300.5 253L277 238L294.5 276L266.5 233L246.5 209.5L259 230.5L241.5 220L266.5 250.5L280 272.5L262.5 250.5L277 294.5L260.5 257.5L241.5 230.5L260.5 276L230.5 217L235 260.5L250 286.5L235 266L223.5 220L211 198.5L215 217V221.5L218 233H214V240.5L207.5 235L209 248L201 227L204 250.5L215 269.5L201 250.5L197 225V253L204 272.5V286.5L201 272.5L193.5 250.5V223L189.5 253L187.5 286.5L183 303.5L184.5 285.5L185.5 253V225L180 239.5L176 255L174 259L172.5 271L164.5 291.5L160 297.5L141 313.5L155 300L163 286.5L168 269.5L172.5 250.5L170.5 253L163 264.5L160 274.5V266L166 253L174 239.5L176 227L146.5 280L172.5 227L152 259L141 276L135 280L122 302L128 286.5L137.5 276L145 262.5L152 248L131.5 272.5L149.5 248L141 250.5L149.5 245L155 236.5L170.5 209.5L160 217L155 225L131.5 250.5L110.5 280L125.5 255Z" fill="url(#paint4_linear_252_70)"/>
<path d="M94.6045 123L175 136.5L197.5 148.5L205 158.5L208.388 176.497L187.754 189.43L172.425 194.133L166.53 187.079L154.149 182.376L109.933 220L162.993 169.442L85.1716 209.418L129.388 185.315L162.993 165.327L129.388 169.442L121.134 172.97L106.985 182.376L115.239 174.145L92.8358 176.497L79.8657 178.848L61 176.497H76.9179L94.6045 174.145L111.701 169.442L102.269 163.564L118.187 169.442L138.231 163.564L160.634 157.097L105.216 159.448L61 157.097H94.6045L137.642 150.63L105.216 149.455L63.9478 139.461L98.1418 142.988V139.461L105.216 147.103H118.187L138.231 142.988L162.993 137.697L94.6045 123Z" fill="url(#paint5_linear_252_70)"/>
<path d="M217 137.5L212.5 121L217 119L231.5 124.5L260 100.5L235 126.5L239 132H247.5L269 116L284.5 108.5L294 97.5L288 108.5L309.5 104L281.5 113L258 132L247.5 142.5L315.5 108.5L252 142.5L281.5 132L288 134L312.5 126.5L252 150L288 142.5L254.5 153.5L282.319 160.918L311 155L284.5 161.5L282.319 160.918L279.5 161.5L252 163.5L231.5 171L200.5 150L194.5 155.5V147L177 137.5L158.5 131.5L159.5 129.5L167.5 126.5L117.5 112L159.5 119L167.5 124.5L162.5 114.5L121.5 90.5L167.5 114.5L183.5 124.5L157.5 93L144.5 69L181.5 112L157.5 52L189.5 119L174 72L177 47V72L194.5 114.5L186.5 81.5L200.5 119V104V98L217 137.5Z" fill="url(#paint6_linear_252_70)"/>
<g filter="url(#filter0_d_252_70)">
<path d="M207 145L204 151L198 145L190 143L188.5 145L193 152.5L191 160.5V166.5L195.5 175L210.5 179L214.5 176V170L218 171L221.5 170.5L230 172.5V170.5L228.5 164L220.5 156.5H216.5V152.5L220.5 144L218.5 141L207 145Z" fill="#E9E9E9"/>
</g>
<g filter="url(#filter1_d_252_70)">
<path d="M206.5 155L205.5 159.5H201L198 156H192V158L189 161.5L192 162.5L194.5 167L192 165.5L189 166L186 169.5L189 174.5L183.5 173.5L182.5 174.5L181 176.5L180 178.5L182 181L180 186.5L179.5 188.5H175V190.5L175.5 194.5L175 197L175.5 203L175 205L177.5 213.5L182 212.5L189 213.5L192.5 208.5L196.5 207L201 209.5V206L203 202V198L201 197L204 193.5H205.5L204 190.5V187.5H206.5V185L208.5 184V180H211L212 176.5L211 173.5L216.5 168L214 166V162.5L212 161.5V158H208.5L206.5 155Z" fill="white"/>
</g>
<defs>
<filter id="filter0_d_252_70" x="172.5" y="123" width="81.5" height="78" filterUnits="userSpaceOnUse" color-interpolation-filters="sRGB">
<feFlood flood-opacity="0" result="BackgroundImageFix"/>
<feColorMatrix in="SourceAlpha" type="matrix" values="0 0 0 0 0 0 0 0 0 0 0 0 0 0 0 0 0 0 127 0" result="hardAlpha"/>
<feOffset dx="4" dy="2"/>
<feGaussianBlur stdDeviation="10"/>
<feComposite in2="hardAlpha" operator="out"/>
<feColorMatrix type="matrix" values="0 0 0 0 0 0 0 0 0 0 0 0 0 0 0 0 0 0 0.25 0"/>
<feBlend mode="normal" in2="BackgroundImageFix" result="effect1_dropShadow_252_70"/>
<feBlend mode="normal" in="SourceGraphic" in2="effect1_dropShadow_252_70" result="shape"/>
</filter>
<filter id="filter1_d_252_70" x="155" y="139" width="81.5" height="98.5" filterUnits="userSpaceOnUse" color-interpolation-filters="sRGB">
<feFlood flood-opacity="0" result="BackgroundImageFix"/>
<feColorMatrix in="SourceAlpha" type="matrix" values="0 0 0 0 0 0 0 0 0 0 0 0 0 0 0 0 0 0 127 0" result="hardAlpha"/>
<feOffset dy="4"/>
<feGaussianBlur stdDeviation="10"/>
<feComposite in2="hardAlpha" operator="out"/>
<feColorMatrix type="matrix" values="0 0 0 0 0 0 0 0 0 0 0 0 0 0 0 0 0 0 0.25 0"/>
<feBlend mode="normal" in2="BackgroundImageFix" result="effect1_dropShadow_252_70"/>
<feBlend mode="normal" in="SourceGraphic" in2="effect1_dropShadow_252_70" result="shape"/>
</filter>
<linearGradient id="paint0_linear_252_70" x1="335" y1="53" x2="65.5" y2="329" gradientUnits="userSpaceOnUse">
<stop stop-color="#CACACA"/>
<stop offset="1" stop-color="#646464"/>
</linearGradient>
<linearGradient id="paint1_linear_252_70" x1="132.5" y1="1.67214e-06" x2="181" y2="309.5" gradientUnits="userSpaceOnUse">
<stop stop-color="#EDEDED"/>
<stop offset="1" stop-color="#787878"/>
</linearGradient>
<linearGradient id="paint2_linear_252_70" x1="275.5" y1="161" x2="183" y2="309.5" gradientUnits="userSpaceOnUse">
<stop stop-color="#CDCDCD"/>
<stop offset="1" stop-color="#B6B6B6"/>
</linearGradient>
<linearGradient id="paint3_linear_252_70" x1="157" y1="293.5" x2="7.5" y2="242" gradientUnits="userSpaceOnUse">
<stop stop-color="#D7D7D7"/>
<stop offset="1" stop-color="#717171"/>
</linearGradient>
<linearGradient id="paint4_linear_252_70" x1="205.5" y1="168" x2="237" y2="313.5" gradientUnits="userSpaceOnUse">
<stop stop-color="#575757"/>
<stop offset="1" stop-color="#C9C9C9" stop-opacity="0.2"/>
</linearGradient>
<linearGradient id="paint5_linear_252_70" x1="71.0224" y1="185.903" x2="226.03" y2="149.848" gradientUnits="userSpaceOnUse">
<stop stop-color="#C2C2C2" stop-opacity="0.2"/>
<stop offset="1" stop-color="#595959"/>
</linearGradient>
<linearGradient id="paint6_linear_252_70" x1="216.5" y1="47" x2="216.5" y2="171" gradientUnits="userSpaceOnUse">
<stop stop-color="#C0C0C0" stop-opacity="0.2"/>
<stop offset="1" stop-color="#606060"/>
</linearGradient>
</defs>
</svg>
